<mxfile host="65bd71144e">
    <diagram id="p0LbSEu3ZrXP_UhGMu0q" name="Page-1">
        <mxGraphModel dx="2084" dy="1128" grid="0" gridSize="10" guides="1" tooltips="1" connect="1" arrows="1" fold="1" page="0" pageScale="1" pageWidth="850" pageHeight="1100" math="0" shadow="0">
            <root>
                <mxCell id="0"/>
                <mxCell id="1" parent="0"/>
                <mxCell id="G_-Ms--PT5xcRwPfffM3-5" value="" style="rounded=0;whiteSpace=wrap;html=1;fontSize=24;" parent="1" vertex="1">
                    <mxGeometry x="111" y="107" width="737" height="499" as="geometry"/>
                </mxCell>
                <mxCell id="2" style="edgeStyle=orthogonalEdgeStyle;html=1;exitX=1;exitY=0.5;exitDx=0;exitDy=0;entryX=1;entryY=0.5;entryDx=0;entryDy=0;curved=1;dashed=1;strokeColor=#999999;" edge="1" parent="1" source="G_-Ms--PT5xcRwPfffM3-1" target="G_-Ms--PT5xcRwPfffM3-21">
                    <mxGeometry relative="1" as="geometry">
                        <Array as="points">
                            <mxPoint x="1048" y="537"/>
                            <mxPoint x="1048" y="941"/>
                        </Array>
                    </mxGeometry>
                </mxCell>
                <mxCell id="G_-Ms--PT5xcRwPfffM3-1" value="&lt;font color=&quot;#ffffff&quot; style=&quot;font-size: 18px;&quot;&gt;NEXT&lt;/font&gt;" style="rounded=1;whiteSpace=wrap;html=1;fillColor=#1ba1e2;strokeColor=#006EAF;fontColor=#ffffff;" parent="1" vertex="1">
                    <mxGeometry x="689" y="518" width="116" height="37" as="geometry"/>
                </mxCell>
                <mxCell id="G_-Ms--PT5xcRwPfffM3-2" value="&lt;font style=&quot;font-size: 24px;&quot;&gt;1&lt;/font&gt;" style="ellipse;whiteSpace=wrap;html=1;aspect=fixed;fillColor=#1ba1e2;fontColor=#ffffff;strokeColor=#006EAF;" parent="1" vertex="1">
                    <mxGeometry x="155" y="235.5" width="40" height="40" as="geometry"/>
                </mxCell>
                <mxCell id="G_-Ms--PT5xcRwPfffM3-3" value="&lt;font style=&quot;font-size: 24px;&quot;&gt;2&lt;/font&gt;" style="ellipse;whiteSpace=wrap;html=1;aspect=fixed;fillColor=#CCCCCC;fontColor=#ffffff;strokeColor=#314354;gradientColor=none;" parent="1" vertex="1">
                    <mxGeometry x="435" y="235.5" width="40" height="40" as="geometry"/>
                </mxCell>
                <mxCell id="G_-Ms--PT5xcRwPfffM3-4" value="&lt;font style=&quot;font-size: 24px;&quot;&gt;3&lt;/font&gt;" style="ellipse;whiteSpace=wrap;html=1;aspect=fixed;fillColor=#CCCCCC;fontColor=#ffffff;strokeColor=#314354;" parent="1" vertex="1">
                    <mxGeometry x="718" y="235.5" width="40" height="40" as="geometry"/>
                </mxCell>
                <mxCell id="G_-Ms--PT5xcRwPfffM3-6" value="&lt;b style=&quot;&quot;&gt;&lt;font style=&quot;font-size: 36px;&quot; color=&quot;#7ea6e0&quot;&gt;SIGN UP&lt;/font&gt;&lt;/b&gt;" style="text;html=1;strokeColor=none;fillColor=none;align=center;verticalAlign=middle;whiteSpace=wrap;rounded=0;fontSize=24;fontColor=#FFFFFF;" parent="1" vertex="1">
                    <mxGeometry x="358.5" y="146" width="242" height="46" as="geometry"/>
                </mxCell>
                <mxCell id="G_-Ms--PT5xcRwPfffM3-8" value="&lt;font color=&quot;#999999&quot; style=&quot;font-size: 18px;&quot;&gt;First name *&lt;/font&gt;" style="rounded=0;whiteSpace=wrap;html=1;fontSize=14;fontColor=#000000;strokeColor=#999999;" parent="1" vertex="1">
                    <mxGeometry x="182" y="342" width="253" height="44" as="geometry"/>
                </mxCell>
                <mxCell id="G_-Ms--PT5xcRwPfffM3-10" value="&lt;font color=&quot;#999999&quot; style=&quot;font-size: 18px;&quot;&gt;Last name *&lt;/font&gt;" style="rounded=0;whiteSpace=wrap;html=1;fontSize=14;fontColor=#000000;strokeColor=#999999;" parent="1" vertex="1">
                    <mxGeometry x="484" y="341.5" width="274" height="45" as="geometry"/>
                </mxCell>
                <mxCell id="G_-Ms--PT5xcRwPfffM3-12" value="&lt;font color=&quot;#666666&quot; style=&quot;font-size: 14px;&quot;&gt;Update Avatar&lt;/font&gt;" style="text;html=1;strokeColor=none;fillColor=none;align=center;verticalAlign=middle;whiteSpace=wrap;rounded=0;fontSize=24;fontColor=#000000;" parent="1" vertex="1">
                    <mxGeometry x="478" y="235.5" width="94" height="35" as="geometry"/>
                </mxCell>
                <mxCell id="G_-Ms--PT5xcRwPfffM3-13" value="&lt;font color=&quot;#666666&quot; style=&quot;font-size: 14px;&quot;&gt;Information&lt;/font&gt;" style="text;html=1;strokeColor=none;fillColor=none;align=center;verticalAlign=middle;whiteSpace=wrap;rounded=0;fontSize=24;fontColor=#000000;" parent="1" vertex="1">
                    <mxGeometry x="193" y="233" width="94" height="35" as="geometry"/>
                </mxCell>
                <mxCell id="G_-Ms--PT5xcRwPfffM3-14" value="&lt;font color=&quot;#666666&quot; style=&quot;font-size: 14px;&quot;&gt;Review&lt;/font&gt;" style="text;html=1;strokeColor=none;fillColor=none;align=center;verticalAlign=middle;whiteSpace=wrap;rounded=0;fontSize=24;fontColor=#000000;" parent="1" vertex="1">
                    <mxGeometry x="758" y="235.5" width="56" height="35" as="geometry"/>
                </mxCell>
                <mxCell id="G_-Ms--PT5xcRwPfffM3-15" value="" style="endArrow=none;html=1;rounded=0;fontSize=14;fontColor=#666666;" parent="1" edge="1">
                    <mxGeometry width="50" height="50" relative="1" as="geometry">
                        <mxPoint x="308" y="257" as="sourcePoint"/>
                        <mxPoint x="402" y="257" as="targetPoint"/>
                    </mxGeometry>
                </mxCell>
                <mxCell id="G_-Ms--PT5xcRwPfffM3-18" value="" style="endArrow=none;html=1;rounded=0;fontSize=14;fontColor=#666666;" parent="1" edge="1">
                    <mxGeometry width="50" height="50" relative="1" as="geometry">
                        <mxPoint x="598" y="255" as="sourcePoint"/>
                        <mxPoint x="692" y="255" as="targetPoint"/>
                    </mxGeometry>
                </mxCell>
                <mxCell id="G_-Ms--PT5xcRwPfffM3-20" value="&lt;font color=&quot;#999999&quot; style=&quot;font-size: 18px;&quot;&gt;Phone number *&lt;/font&gt;" style="rounded=0;whiteSpace=wrap;html=1;fontSize=14;fontColor=#000000;strokeColor=#999999;" parent="1" vertex="1">
                    <mxGeometry x="182" y="425" width="575" height="45" as="geometry"/>
                </mxCell>
                <mxCell id="G_-Ms--PT5xcRwPfffM3-21" value="" style="rounded=0;whiteSpace=wrap;html=1;fontSize=24;" parent="1" vertex="1">
                    <mxGeometry x="113" y="691" width="737" height="499" as="geometry"/>
                </mxCell>
                <mxCell id="3" style="edgeStyle=orthogonalEdgeStyle;curved=1;html=1;exitX=1;exitY=0.5;exitDx=0;exitDy=0;entryX=1;entryY=0.5;entryDx=0;entryDy=0;dashed=1;strokeColor=#999999;" edge="1" parent="1" source="G_-Ms--PT5xcRwPfffM3-22" target="G_-Ms--PT5xcRwPfffM3-35">
                    <mxGeometry relative="1" as="geometry">
                        <Array as="points">
                            <mxPoint x="1062" y="1121"/>
                            <mxPoint x="1062" y="1641"/>
                        </Array>
                    </mxGeometry>
                </mxCell>
                <mxCell id="G_-Ms--PT5xcRwPfffM3-22" value="&lt;font color=&quot;#ffffff&quot; style=&quot;font-size: 18px;&quot;&gt;NEXT&lt;/font&gt;" style="rounded=1;whiteSpace=wrap;html=1;fillColor=#1ba1e2;strokeColor=#006EAF;fontColor=#ffffff;" parent="1" vertex="1">
                    <mxGeometry x="691" y="1102" width="116" height="37" as="geometry"/>
                </mxCell>
                <mxCell id="G_-Ms--PT5xcRwPfffM3-23" value="&lt;font style=&quot;font-size: 24px;&quot;&gt;1&lt;/font&gt;" style="ellipse;whiteSpace=wrap;html=1;aspect=fixed;fillColor=#CCCCCC;fontColor=#ffffff;strokeColor=#006EAF;" parent="1" vertex="1">
                    <mxGeometry x="157" y="819.5" width="40" height="40" as="geometry"/>
                </mxCell>
                <mxCell id="G_-Ms--PT5xcRwPfffM3-24" value="&lt;font style=&quot;font-size: 24px;&quot;&gt;2&lt;/font&gt;" style="ellipse;whiteSpace=wrap;html=1;aspect=fixed;fillColor=#1ba1e2;fontColor=#ffffff;strokeColor=#006EAF;" parent="1" vertex="1">
                    <mxGeometry x="437" y="819.5" width="40" height="40" as="geometry"/>
                </mxCell>
                <mxCell id="G_-Ms--PT5xcRwPfffM3-25" value="&lt;font style=&quot;font-size: 24px;&quot;&gt;3&lt;/font&gt;" style="ellipse;whiteSpace=wrap;html=1;aspect=fixed;fillColor=#CCCCCC;fontColor=#ffffff;strokeColor=#314354;" parent="1" vertex="1">
                    <mxGeometry x="720" y="819.5" width="40" height="40" as="geometry"/>
                </mxCell>
                <mxCell id="G_-Ms--PT5xcRwPfffM3-26" value="&lt;b style=&quot;&quot;&gt;&lt;font style=&quot;font-size: 36px;&quot; color=&quot;#7ea6e0&quot;&gt;SIGN UP&lt;/font&gt;&lt;/b&gt;" style="text;html=1;strokeColor=none;fillColor=none;align=center;verticalAlign=middle;whiteSpace=wrap;rounded=0;fontSize=24;fontColor=#FFFFFF;" parent="1" vertex="1">
                    <mxGeometry x="360.5" y="730" width="242" height="46" as="geometry"/>
                </mxCell>
                <mxCell id="G_-Ms--PT5xcRwPfffM3-29" value="&lt;font color=&quot;#666666&quot; style=&quot;font-size: 14px;&quot;&gt;Update Avatar&lt;/font&gt;" style="text;html=1;strokeColor=none;fillColor=none;align=center;verticalAlign=middle;whiteSpace=wrap;rounded=0;fontSize=24;fontColor=#000000;" parent="1" vertex="1">
                    <mxGeometry x="480" y="819.5" width="94" height="35" as="geometry"/>
                </mxCell>
                <mxCell id="G_-Ms--PT5xcRwPfffM3-30" value="&lt;font color=&quot;#666666&quot; style=&quot;font-size: 14px;&quot;&gt;Information&lt;/font&gt;" style="text;html=1;strokeColor=none;fillColor=none;align=center;verticalAlign=middle;whiteSpace=wrap;rounded=0;fontSize=24;fontColor=#000000;" parent="1" vertex="1">
                    <mxGeometry x="195" y="817" width="94" height="35" as="geometry"/>
                </mxCell>
                <mxCell id="G_-Ms--PT5xcRwPfffM3-31" value="&lt;font color=&quot;#666666&quot; style=&quot;font-size: 14px;&quot;&gt;Review&lt;/font&gt;" style="text;html=1;strokeColor=none;fillColor=none;align=center;verticalAlign=middle;whiteSpace=wrap;rounded=0;fontSize=24;fontColor=#000000;" parent="1" vertex="1">
                    <mxGeometry x="760" y="819.5" width="56" height="35" as="geometry"/>
                </mxCell>
                <mxCell id="G_-Ms--PT5xcRwPfffM3-32" value="" style="endArrow=none;html=1;rounded=0;fontSize=14;fontColor=#666666;" parent="1" edge="1">
                    <mxGeometry width="50" height="50" relative="1" as="geometry">
                        <mxPoint x="310" y="841" as="sourcePoint"/>
                        <mxPoint x="404" y="841" as="targetPoint"/>
                    </mxGeometry>
                </mxCell>
                <mxCell id="G_-Ms--PT5xcRwPfffM3-33" value="" style="endArrow=none;html=1;rounded=0;fontSize=14;fontColor=#666666;" parent="1" edge="1">
                    <mxGeometry width="50" height="50" relative="1" as="geometry">
                        <mxPoint x="600" y="839" as="sourcePoint"/>
                        <mxPoint x="694" y="839" as="targetPoint"/>
                    </mxGeometry>
                </mxCell>
                <mxCell id="G_-Ms--PT5xcRwPfffM3-34" value="&lt;br&gt;&lt;font color=&quot;#999999&quot;&gt;&lt;br&gt;&lt;/font&gt;" style="rounded=0;whiteSpace=wrap;html=1;fontSize=14;fontColor=#000000;strokeColor=#999999;" parent="1" vertex="1">
                    <mxGeometry x="182" y="911" width="591" height="147" as="geometry"/>
                </mxCell>
                <mxCell id="G_-Ms--PT5xcRwPfffM3-35" value="" style="rounded=0;whiteSpace=wrap;html=1;fontSize=24;" parent="1" vertex="1">
                    <mxGeometry x="107" y="1270" width="737" height="741" as="geometry"/>
                </mxCell>
                <mxCell id="7" style="edgeStyle=orthogonalEdgeStyle;curved=1;html=1;exitX=1;exitY=0.5;exitDx=0;exitDy=0;entryX=1;entryY=0.5;entryDx=0;entryDy=0;dashed=1;strokeColor=#999999;" edge="1" parent="1" source="G_-Ms--PT5xcRwPfffM3-36" target="6">
                    <mxGeometry relative="1" as="geometry">
                        <Array as="points">
                            <mxPoint x="1102" y="1948"/>
                            <mxPoint x="1102" y="2475"/>
                        </Array>
                    </mxGeometry>
                </mxCell>
                <mxCell id="G_-Ms--PT5xcRwPfffM3-36" value="&lt;font color=&quot;#ffffff&quot; style=&quot;font-size: 18px;&quot;&gt;SUBMIT&lt;/font&gt;" style="rounded=1;whiteSpace=wrap;html=1;fillColor=#1ba1e2;strokeColor=#006EAF;fontColor=#ffffff;" parent="1" vertex="1">
                    <mxGeometry x="691" y="1929" width="116" height="37" as="geometry"/>
                </mxCell>
                <mxCell id="G_-Ms--PT5xcRwPfffM3-37" value="&lt;font style=&quot;font-size: 24px;&quot;&gt;1&lt;/font&gt;" style="ellipse;whiteSpace=wrap;html=1;aspect=fixed;fillColor=#CCCCCC;fontColor=#ffffff;strokeColor=#006EAF;" parent="1" vertex="1">
                    <mxGeometry x="151" y="1398.5" width="40" height="40" as="geometry"/>
                </mxCell>
                <mxCell id="G_-Ms--PT5xcRwPfffM3-38" value="&lt;font style=&quot;font-size: 24px;&quot;&gt;2&lt;/font&gt;" style="ellipse;whiteSpace=wrap;html=1;aspect=fixed;fillColor=#CCCCCC;fontColor=#ffffff;strokeColor=#314354;gradientColor=none;" parent="1" vertex="1">
                    <mxGeometry x="431" y="1398.5" width="40" height="40" as="geometry"/>
                </mxCell>
                <mxCell id="G_-Ms--PT5xcRwPfffM3-39" value="&lt;font style=&quot;font-size: 24px;&quot;&gt;3&lt;/font&gt;" style="ellipse;whiteSpace=wrap;html=1;aspect=fixed;fillColor=#1ba1e2;fontColor=#ffffff;strokeColor=#006EAF;" parent="1" vertex="1">
                    <mxGeometry x="714" y="1398.5" width="40" height="40" as="geometry"/>
                </mxCell>
                <mxCell id="G_-Ms--PT5xcRwPfffM3-40" value="&lt;b style=&quot;&quot;&gt;&lt;font style=&quot;font-size: 36px;&quot; color=&quot;#7ea6e0&quot;&gt;SIGN UP&lt;/font&gt;&lt;/b&gt;" style="text;html=1;strokeColor=none;fillColor=none;align=center;verticalAlign=middle;whiteSpace=wrap;rounded=0;fontSize=24;fontColor=#FFFFFF;" parent="1" vertex="1">
                    <mxGeometry x="354.5" y="1309" width="242" height="46" as="geometry"/>
                </mxCell>
                <mxCell id="G_-Ms--PT5xcRwPfffM3-41" value="&lt;font color=&quot;#999999&quot; style=&quot;font-size: 18px&quot;&gt;First name&lt;/font&gt;" style="rounded=0;whiteSpace=wrap;html=1;fontSize=14;fontColor=#000000;strokeColor=#999999;" parent="1" vertex="1">
                    <mxGeometry x="178" y="1505" width="253" height="44" as="geometry"/>
                </mxCell>
                <mxCell id="G_-Ms--PT5xcRwPfffM3-42" value="&lt;font color=&quot;#999999&quot; style=&quot;font-size: 18px&quot;&gt;Last name&lt;/font&gt;" style="rounded=0;whiteSpace=wrap;html=1;fontSize=14;fontColor=#000000;strokeColor=#999999;" parent="1" vertex="1">
                    <mxGeometry x="480" y="1504.5" width="274" height="45" as="geometry"/>
                </mxCell>
                <mxCell id="G_-Ms--PT5xcRwPfffM3-43" value="&lt;font color=&quot;#666666&quot; style=&quot;font-size: 14px;&quot;&gt;Update Avatar&lt;/font&gt;" style="text;html=1;strokeColor=none;fillColor=none;align=center;verticalAlign=middle;whiteSpace=wrap;rounded=0;fontSize=24;fontColor=#000000;" parent="1" vertex="1">
                    <mxGeometry x="474" y="1398.5" width="94" height="35" as="geometry"/>
                </mxCell>
                <mxCell id="G_-Ms--PT5xcRwPfffM3-44" value="&lt;font color=&quot;#666666&quot; style=&quot;font-size: 14px;&quot;&gt;Information&lt;/font&gt;" style="text;html=1;strokeColor=none;fillColor=none;align=center;verticalAlign=middle;whiteSpace=wrap;rounded=0;fontSize=24;fontColor=#000000;" parent="1" vertex="1">
                    <mxGeometry x="189" y="1396" width="94" height="35" as="geometry"/>
                </mxCell>
                <mxCell id="G_-Ms--PT5xcRwPfffM3-45" value="&lt;font color=&quot;#666666&quot; style=&quot;font-size: 14px;&quot;&gt;Review&lt;/font&gt;" style="text;html=1;strokeColor=none;fillColor=none;align=center;verticalAlign=middle;whiteSpace=wrap;rounded=0;fontSize=24;fontColor=#000000;" parent="1" vertex="1">
                    <mxGeometry x="754" y="1398.5" width="56" height="35" as="geometry"/>
                </mxCell>
                <mxCell id="G_-Ms--PT5xcRwPfffM3-46" value="" style="endArrow=none;html=1;rounded=0;fontSize=14;fontColor=#666666;" parent="1" edge="1">
                    <mxGeometry width="50" height="50" relative="1" as="geometry">
                        <mxPoint x="304" y="1420" as="sourcePoint"/>
                        <mxPoint x="398" y="1420" as="targetPoint"/>
                    </mxGeometry>
                </mxCell>
                <mxCell id="G_-Ms--PT5xcRwPfffM3-47" value="" style="endArrow=none;html=1;rounded=0;fontSize=14;fontColor=#666666;" parent="1" edge="1">
                    <mxGeometry width="50" height="50" relative="1" as="geometry">
                        <mxPoint x="594" y="1418" as="sourcePoint"/>
                        <mxPoint x="688" y="1418" as="targetPoint"/>
                    </mxGeometry>
                </mxCell>
                <mxCell id="G_-Ms--PT5xcRwPfffM3-48" value="&lt;font color=&quot;#999999&quot; style=&quot;font-size: 18px&quot;&gt;Phone number&lt;/font&gt;" style="rounded=0;whiteSpace=wrap;html=1;fontSize=14;fontColor=#000000;strokeColor=#999999;" parent="1" vertex="1">
                    <mxGeometry x="178" y="1588" width="575" height="45" as="geometry"/>
                </mxCell>
                <mxCell id="G_-Ms--PT5xcRwPfffM3-56" value="&#10;Drag 'n' drop files here, or click to select files" style="shape=image;verticalLabelPosition=bottom;labelBackgroundColor=default;verticalAlign=top;aspect=fixed;imageAspect=0;image=data:image/png,iVBORw0KGgoAAAANSUhEUgAAAOEAAADhCAMAAAAJbSJIAAAAb1BMVEX///9VVVVGRkbi4uJSUlLp6elOTk5JSUlra2tdXV1ERERLS0tAQED8/Pz09PTc3NyWlpZ3d3fT09PMzMxhYWFbW1usrKxxcXGSkpLv7++8vLy0tLSmpqZnZ2eHh4d+fn6fn5/Ozs7ExMSLi4s0NDQiO3YpAAAHK0lEQVR4nO2d25aqMAyGpZZWqSCeD6gwut//GTc4OqKCQEnazqx8t7MG+KVp0jQpgwFBEARBEARBEARBEARBEARBEARBEARhgsgfFuxC2w8CTzhN4pknJftGynGanYd/Ruj8sFFMCe6V4FwoxtNkaPvhehOe00A+iyvrVIGXTW0/Yx/8mMs6dXcEO+5/63CdpoFokHd7kzKLbD+sBtMNa3p9pRcp49+mcXcK2uu7alRr28/ciQNrNT6fUOO57cduzXCpOuvL4cHll0w5644D9IHwfoPrCGdMU9/1NSa2n78Rn3e3wDLsZFtBA1OlO0LvqI3TxrgIeurLEWOHXSOEwNwY3ZUIIzCXuHJU4nwCIzCXuHTSFn0JJTC3xY1tNRWEvO8sWkZtbet5Z9bPD74S7G0LeiUDHKPfEn3bkp6ZA02jD/jSho7dfL/O4m2crffzXfkPoQdphN+ozLS6/WnFmFKiQCkmvTT5UZlpLZcaYCYTcdF+E6jXyZKrYJRcffMQfIxerz8yps/fspqAmisZ5zPCBn6MFrCzGX3R9mPKTATxoseK8BPcMyJwL5scncAwwivSwHo46rNi7w9HF/jVmLLGRWJHNmuUObID/IgrMLYtMJ9OUXOosVUT/EZcEAVmDgjMJeKthRP7Q7RAonn9qRsCPY6VP8VYLOjBkBReYFfsPUCaTeEXtNqIA4rCsStjNDdElLTbHjrp0gcUf+HQK8wNESEldXbC19+RC3iFI5deoYdQwuC7M5EWiBhc4cEZX3gFIao5OjVIEVJuO6fmmQJohWeXnGGBgFaYuWWGCLH3zC0z9LwJtELXBIK/w9A1MwS3Q9+5qVT+eYXQdjgkhcYhhV1xL2iDVhg55y3APb5rQRu8QqRNeX3AFcauvURwhWe0bXlNwBU6lqZBUDhYOmaI8ApBl8AA14JXCBl7y0N/98pn6WmbJQuortphcoIbpSwZJP1/L865EEoyPlv37hqax17QuyfkgSqSuTFckMQVk6eF/qscZlyjqe4DYna9Lmx9NJfqovcm57N2Pa0dnuXWUxBCT84i2HTfrenU09oOru59IRHgwL9dmx27bX5HF+2WwXqCx1hCKOzgQbr7oOiFBHp8FgTlQhiofqEyfNJ22w2nwJI9FxisMe4hj622h3EKLNVrPdoWI57nQYuKqQNKnF3Rt7RBWZQFjdunF5SsDF+9e+VwhRLQy/SjvnCDsxZUVfaxw1lZi9GnGGeEc9NJta+agvUnPiE+1BHjmIbH6oqzzzhra1G7DZ7iDFFZb/xIRbmixhYBY/42t7tyMvmj7nF+z4bqeqRipCrD8HHMnovPbdhYlbmT99kbKd3U2FEH2Q9d4r0fM8YxiEnzug2pOFe9mCJSnTprE+0jTQDB8+jBMfi3cLsanEn8uTgMp4D0lpZpJkWJNJ76MVEmtKpwuwaUaY6vHjdIUKYZ1T6rEKH8xKVWPpR1zKRLim+I4Y0fLxHFCjue8oCRuPHY3VdhbPLKrJNAnMQNv011GOUkH8PtajASN7fGBYQybq1CZeDDUApuZf3w7SKc65x6BJ7svy9sEDaxpd4BFrvak1u1CQqPBe8MW4Tb1cBHx6qY0VPoH47pH3wAnrjhRWQMfM1+JzodgOd1PoYvkG0dblcD7TPYbvAFu3Th457lA8AZTTkfrGG3nEWHTbxKQljnlU81sFVrQf8TVXegG8TiADuVttncagTUZ/AtaNjNYNqsIX1GHnwf4a6moBoDIX3GcrACuxZgXyBgsn8F5/D1wu0aAHN/gAr7+okn4NYZcKN0vBnVsaxeawz5uI7lGOqxVoMl1KWKisEaghqFQf2/gD3V0kglfs32jIluHL4ZABaP1mJT4clIl69FhSIbJH9boUoGCwNtTRYVyi8jLaIWFTJ/EP7xmSY00rhlT+E1r2/g5BJ7Cq9J7yn+fewpZNecA35rmj2F34cTbNGHqTWFt+OI5ug3sqaQ3RJjOMW65RtZUvhTGHXAtkRbCtV9ByXCvpMthewnr4I911hSWDr2DPvYBEsKWSlzhPwS7Sh8+loE8skQdhQ+n5G5RpVoReFrITRqR7oNhW8ZeNS72VD4fsopSrvc/W7mFVaVSyCUJP3czrjCyqozpF6yAuMKa77T5qN9u8K0wtomD7TVvmmFqrbqDOtccrMK+adyiTl4E/4Vowq5+lgPMkWxRZMKuWgojPRBv1p4w6BCsWzca4828CGqOYUsbVN0dgA/McKUQt628FPzQ+H1GFIoa+oFDLxGIwpFt8pdP4X0GwYUCrbtWs4zBTyAB1shF8FW55MQw4sCKoTEVSiYd9Atx4r2s8nblyo1wFPIhQwuX5rybiLPp1UgRT+ZKAq5UIyNMpAvB/mLw2mpJNPmX43Cf5rXkzneLNtPYT9IHvn+UJfqQCP0NYkiR7+1ThAEQRAEQRAEQRAEQRAEQRAEQRAEYZf/0XaS3qfrLdcAAAAASUVORK5CYII=;fontSize=14;fontColor=#999999;" parent="1" vertex="1">
                    <mxGeometry x="438" y="925" width="66.2" height="66.2" as="geometry"/>
                </mxCell>
                <mxCell id="G_-Ms--PT5xcRwPfffM3-58" value="&lt;br&gt;&lt;font color=&quot;#999999&quot;&gt;&lt;br&gt;&lt;/font&gt;" style="rounded=0;whiteSpace=wrap;html=1;fontSize=14;fontColor=#000000;strokeColor=#999999;" parent="1" vertex="1">
                    <mxGeometry x="178" y="1698" width="578" height="184" as="geometry"/>
                </mxCell>
                <mxCell id="G_-Ms--PT5xcRwPfffM3-59" value="" style="shape=image;verticalLabelPosition=bottom;labelBackgroundColor=default;verticalAlign=top;aspect=fixed;imageAspect=0;image=data:image/png,iVBORw0KGgoAAAANSUhEUgAAAOEAAADhCAMAAAAJbSJIAAAAb1BMVEX///9VVVVGRkbi4uJSUlLp6elOTk5JSUlra2tdXV1ERERLS0tAQED8/Pz09PTc3NyWlpZ3d3fT09PMzMxhYWFbW1usrKxxcXGSkpLv7++8vLy0tLSmpqZnZ2eHh4d+fn6fn5/Ozs7ExMSLi4s0NDQiO3YpAAAHK0lEQVR4nO2d25aqMAyGpZZWqSCeD6gwut//GTc4OqKCQEnazqx8t7MG+KVp0jQpgwFBEARBEARBEARBEARBEARBEARBEARhgsgfFuxC2w8CTzhN4pknJftGynGanYd/Ruj8sFFMCe6V4FwoxtNkaPvhehOe00A+iyvrVIGXTW0/Yx/8mMs6dXcEO+5/63CdpoFokHd7kzKLbD+sBtMNa3p9pRcp49+mcXcK2uu7alRr28/ciQNrNT6fUOO57cduzXCpOuvL4cHll0w5644D9IHwfoPrCGdMU9/1NSa2n78Rn3e3wDLsZFtBA1OlO0LvqI3TxrgIeurLEWOHXSOEwNwY3ZUIIzCXuHJU4nwCIzCXuHTSFn0JJTC3xY1tNRWEvO8sWkZtbet5Z9bPD74S7G0LeiUDHKPfEn3bkp6ZA02jD/jSho7dfL/O4m2crffzXfkPoQdphN+ozLS6/WnFmFKiQCkmvTT5UZlpLZcaYCYTcdF+E6jXyZKrYJRcffMQfIxerz8yps/fspqAmisZ5zPCBn6MFrCzGX3R9mPKTATxoseK8BPcMyJwL5scncAwwivSwHo46rNi7w9HF/jVmLLGRWJHNmuUObID/IgrMLYtMJ9OUXOosVUT/EZcEAVmDgjMJeKthRP7Q7RAonn9qRsCPY6VP8VYLOjBkBReYFfsPUCaTeEXtNqIA4rCsStjNDdElLTbHjrp0gcUf+HQK8wNESEldXbC19+RC3iFI5deoYdQwuC7M5EWiBhc4cEZX3gFIao5OjVIEVJuO6fmmQJohWeXnGGBgFaYuWWGCLH3zC0z9LwJtELXBIK/w9A1MwS3Q9+5qVT+eYXQdjgkhcYhhV1xL2iDVhg55y3APb5rQRu8QqRNeX3AFcauvURwhWe0bXlNwBU6lqZBUDhYOmaI8ApBl8AA14JXCBl7y0N/98pn6WmbJQuortphcoIbpSwZJP1/L865EEoyPlv37hqax17QuyfkgSqSuTFckMQVk6eF/qscZlyjqe4DYna9Lmx9NJfqovcm57N2Pa0dnuXWUxBCT84i2HTfrenU09oOru59IRHgwL9dmx27bX5HF+2WwXqCx1hCKOzgQbr7oOiFBHp8FgTlQhiofqEyfNJ22w2nwJI9FxisMe4hj622h3EKLNVrPdoWI57nQYuKqQNKnF3Rt7RBWZQFjdunF5SsDF+9e+VwhRLQy/SjvnCDsxZUVfaxw1lZi9GnGGeEc9NJta+agvUnPiE+1BHjmIbH6oqzzzhra1G7DZ7iDFFZb/xIRbmixhYBY/42t7tyMvmj7nF+z4bqeqRipCrD8HHMnovPbdhYlbmT99kbKd3U2FEH2Q9d4r0fM8YxiEnzug2pOFe9mCJSnTprE+0jTQDB8+jBMfi3cLsanEn8uTgMp4D0lpZpJkWJNJ76MVEmtKpwuwaUaY6vHjdIUKYZ1T6rEKH8xKVWPpR1zKRLim+I4Y0fLxHFCjue8oCRuPHY3VdhbPLKrJNAnMQNv011GOUkH8PtajASN7fGBYQybq1CZeDDUApuZf3w7SKc65x6BJ7svy9sEDaxpd4BFrvak1u1CQqPBe8MW4Tb1cBHx6qY0VPoH47pH3wAnrjhRWQMfM1+JzodgOd1PoYvkG0dblcD7TPYbvAFu3Th457lA8AZTTkfrGG3nEWHTbxKQljnlU81sFVrQf8TVXegG8TiADuVttncagTUZ/AtaNjNYNqsIX1GHnwf4a6moBoDIX3GcrACuxZgXyBgsn8F5/D1wu0aAHN/gAr7+okn4NYZcKN0vBnVsaxeawz5uI7lGOqxVoMl1KWKisEaghqFQf2/gD3V0kglfs32jIluHL4ZABaP1mJT4clIl69FhSIbJH9boUoGCwNtTRYVyi8jLaIWFTJ/EP7xmSY00rhlT+E1r2/g5BJ7Cq9J7yn+fewpZNecA35rmj2F34cTbNGHqTWFt+OI5ug3sqaQ3RJjOMW65RtZUvhTGHXAtkRbCtV9ByXCvpMthewnr4I911hSWDr2DPvYBEsKWSlzhPwS7Sh8+loE8skQdhQ+n5G5RpVoReFrITRqR7oNhW8ZeNS72VD4fsopSrvc/W7mFVaVSyCUJP3czrjCyqozpF6yAuMKa77T5qN9u8K0wtomD7TVvmmFqrbqDOtccrMK+adyiTl4E/4Vowq5+lgPMkWxRZMKuWgojPRBv1p4w6BCsWzca4828CGqOYUsbVN0dgA/McKUQt628FPzQ+H1GFIoa+oFDLxGIwpFt8pdP4X0GwYUCrbtWs4zBTyAB1shF8FW55MQw4sCKoTEVSiYd9Atx4r2s8nblyo1wFPIhQwuX5rybiLPp1UgRT+ZKAq5UIyNMpAvB/mLw2mpJNPmX43Cf5rXkzneLNtPYT9IHvn+UJfqQCP0NYkiR7+1ThAEQRAEQRAEQRAEQRAEQRAEQRAEYZf/0XaS3qfrLdcAAAAASUVORK5CYII=;fontSize=14;fontColor=#999999;" parent="1" vertex="1">
                    <mxGeometry x="435" y="1750" width="66.2" height="66.2" as="geometry"/>
                </mxCell>
                <mxCell id="5" style="edgeStyle=orthogonalEdgeStyle;curved=1;html=1;exitX=0.5;exitY=1;exitDx=0;exitDy=0;entryX=0;entryY=0.5;entryDx=0;entryDy=0;dashed=1;strokeColor=#999999;" edge="1" parent="1" source="G_-Ms--PT5xcRwPfffM3-60" target="G_-Ms--PT5xcRwPfffM3-5">
                    <mxGeometry relative="1" as="geometry">
                        <Array as="points">
                            <mxPoint x="630" y="1246"/>
                            <mxPoint x="-46" y="1246"/>
                            <mxPoint x="-46" y="357"/>
                        </Array>
                    </mxGeometry>
                </mxCell>
                <mxCell id="G_-Ms--PT5xcRwPfffM3-60" value="&lt;font color=&quot;#1ba1e2&quot; style=&quot;font-size: 18px;&quot;&gt;&lt;b&gt;BACK&lt;/b&gt;&lt;/font&gt;" style="rounded=1;whiteSpace=wrap;html=1;strokeColor=none;gradientColor=none;" parent="1" vertex="1">
                    <mxGeometry x="572" y="1102" width="116" height="37" as="geometry"/>
                </mxCell>
                <mxCell id="4" style="edgeStyle=orthogonalEdgeStyle;curved=1;html=1;entryX=0;entryY=0.5;entryDx=0;entryDy=0;dashed=1;strokeColor=#999999;" edge="1" parent="1" source="G_-Ms--PT5xcRwPfffM3-62" target="G_-Ms--PT5xcRwPfffM3-21">
                    <mxGeometry relative="1" as="geometry">
                        <Array as="points">
                            <mxPoint x="626" y="2200"/>
                            <mxPoint x="-14" y="2200"/>
                            <mxPoint x="-14" y="941"/>
                        </Array>
                    </mxGeometry>
                </mxCell>
                <mxCell id="G_-Ms--PT5xcRwPfffM3-62" value="&lt;font color=&quot;#1ba1e2&quot; style=&quot;font-size: 18px;&quot;&gt;&lt;b&gt;BACK&lt;/b&gt;&lt;/font&gt;" style="rounded=1;whiteSpace=wrap;html=1;strokeColor=none;gradientColor=none;" parent="1" vertex="1">
                    <mxGeometry x="568" y="1929" width="116" height="37" as="geometry"/>
                </mxCell>
                <mxCell id="6" value="&lt;b&gt;&lt;font style=&quot;font-size: 45px&quot; color=&quot;#66b2ff&quot;&gt;Thành công&lt;/font&gt;&lt;/b&gt;" style="rounded=0;whiteSpace=wrap;html=1;fontSize=24;" vertex="1" parent="1">
                    <mxGeometry x="101" y="2225" width="737" height="499" as="geometry"/>
                </mxCell>
            </root>
        </mxGraphModel>
    </diagram>
</mxfile>